<svg width="20" height="54" viewBox="0 0 20 54" fill="none" xmlns="http://www.w3.org/2000/svg">
<path d="M5.76177 3.9228C6.98802 5.56875 7.98399 7.34545 9.47151 8.72654C10.0715 9.28564 10.7294 10.447 11.642 9.69677C12.5878 8.92138 11.3837 8.23379 11.0032 7.57049C9.87363 5.60856 8.73477 3.65059 7.51068 1.75078C5.96405 -0.649959 4.0506 -0.574559 2.72974 1.93263C1.57867 4.11481 0.554923 6.36391 0.138988 8.8279C0.0699828 9.2091 -0.188085 9.71455 0.246975 9.93678C0.782825 10.2152 1.00135 9.61658 1.26542 9.30653C2.32174 8.06635 3.01609 6.59489 3.87618 5.22905C4.07787 4.9015 4.159 4.47117 4.60068 4.29468C4.84106 4.73151 4.68682 5.17088 4.66018 5.60009C4.30767 11.4243 4.34581 17.2367 5.51214 22.9881C5.9802 25.3078 6.85129 27.4894 7.96056 29.5589C8.37919 30.338 8.31529 30.783 7.81482 31.4683C4.11239 36.625 2.52604 42.3132 3.72901 48.6428C3.99406 50.0699 4.43326 51.4671 5.09992 52.7787C5.36659 53.3034 5.73684 53.8391 6.39923 53.6129C7.07094 53.3827 7.03454 52.7274 6.87032 52.1592C6.70214 51.5818 6.42757 51.0385 6.23681 50.4596C4.21414 44.115 5.62404 38.3478 9.20104 32.9474C9.60557 32.3468 9.91381 32.3479 10.417 32.8601C11.675 34.1407 13.1051 35.2053 14.892 35.6345C16.3616 35.9894 17.7478 35.8629 18.755 34.6106C19.7661 33.3676 19.6391 31.9808 19.0125 30.6082C17.6407 27.5834 14.4873 26.5245 11.5005 28.1883C10.4769 28.7547 9.98523 28.7875 9.41374 27.6224C8.3606 25.4521 7.67183 23.1821 7.27827 20.8307C6.32398 15.2423 6.24949 9.57732 5.75781 3.91347L5.76177 3.9228ZM12.7146 29.8834C14.8115 28.9713 16.9486 29.9667 17.2091 31.9786C17.3555 33.1261 16.8222 33.6824 15.6683 33.5014C14.3748 33.3026 13.3595 32.5679 12.4096 31.7284C11.2624 30.7087 11.303 30.4936 12.7053 29.8873L12.7146 29.8834Z" fill="#404040"/>
</svg>
