<svg width="22" height="6" viewBox="0 0 22 6" fill="none" xmlns="http://www.w3.org/2000/svg">
<path d="M19.8779 3.59511C17.6309 3.87332 15.384 3.83855 13.1441 3.88823C10.6874 3.93791 8.23068 4.04224 5.7775 4.1267C4.11717 4.18632 2.45683 4.26581 0.796499 4.32542C0.600956 4.33039 0.401858 4.28071 0.206316 4.236C0.0818794 4.21116 -0.00344826 4.10186 0.000107061 3.91307C0.000107061 3.74912 0.0889897 3.64975 0.188539 3.62491C0.437411 3.56033 0.693395 3.48581 0.945822 3.48084C2.96169 3.46097 4.97756 3.35663 6.99342 3.19269C9.41815 2.99396 11.8393 2.8002 14.2676 2.72071C15.7715 2.67103 17.2754 2.58657 18.7793 2.51702C19.3766 2.48721 19.9703 2.5667 20.5641 2.66606C19.7499 2.07485 18.8753 1.72211 18.0043 1.35944C17.7056 1.23523 17.3998 1.14084 17.0976 1.0216C16.8559 0.927208 16.6603 0.748354 16.735 0.350902C16.8026 -0.0217098 17.0372 -0.041581 17.2541 0.0379094C18.598 0.549629 19.9419 1.05141 21.2218 1.83638C21.3391 1.90593 21.4529 1.99536 21.556 2.09472C22.1675 2.68097 22.1462 3.52058 21.4991 4.02237C20.781 4.5788 19.9846 4.82224 19.1988 5.08058C18.1891 5.41345 17.1865 5.79103 16.1519 5.94504C16.0382 5.95995 15.9279 5.98975 15.8142 5.99472C15.7182 5.99969 15.6009 6.0295 15.5546 5.86555C15.4978 5.65689 15.6222 5.58237 15.7217 5.51281C16.3333 5.08058 16.9803 4.78746 17.6345 4.50925C18.3811 4.19128 19.1313 3.88823 19.8779 3.5802V3.59511Z" fill="#404040"/>
</svg>
