<svg width="20" height="54" viewBox="0 0 20 54" fill="none" xmlns="http://www.w3.org/2000/svg">
<path d="M5.76177 49.7432C6.98802 48.0973 7.98399 46.3206 9.47151 44.9395C10.0715 44.3804 10.7294 43.219 11.642 43.9692C12.5878 44.7446 11.3837 45.4322 11.0032 46.0955C9.87363 48.0575 8.73477 50.0154 7.51068 51.9152C5.96405 54.316 4.0506 54.2406 2.72974 51.7334C1.57867 49.5512 0.554923 47.3021 0.138988 44.8381C0.0699828 44.4569 -0.188085 43.9515 0.246975 43.7292C0.782825 43.4508 1.00135 44.0494 1.26542 44.3595C2.32174 45.5997 3.01609 47.0711 3.87618 48.437C4.07787 48.7645 4.159 49.1949 4.60068 49.3713C4.84106 48.9345 4.68682 48.4951 4.66018 48.0659C4.30767 42.2417 4.34581 36.4293 5.51214 30.6779C5.9802 28.3582 6.85129 26.1766 7.96056 24.1071C8.37919 23.328 8.31529 22.883 7.81482 22.1977C4.11239 17.041 2.52604 11.3529 3.72901 5.02318C3.99406 3.59607 4.43326 2.19889 5.09992 0.887268C5.36659 0.362618 5.73684 -0.173039 6.39923 0.053142C7.07094 0.283276 7.03454 0.93866 6.87032 1.5068C6.70214 2.08425 6.42757 2.62753 6.23681 3.2064C4.21414 9.55104 5.62404 15.3182 9.20104 20.7186C9.60557 21.3192 9.91381 21.3181 10.417 20.8059C11.675 19.5253 13.1051 18.4608 14.892 18.0316C16.3616 17.6766 17.7478 17.8031 18.755 19.0554C19.7661 20.2985 19.6391 21.6852 19.0125 23.0578C17.6407 26.0826 14.4873 27.1415 11.5005 25.4777C10.4769 24.9113 9.98523 24.8786 9.41374 26.0436C8.3606 28.214 7.67183 30.484 7.27827 32.8353C6.32398 38.4237 6.24949 44.0887 5.75781 49.7525L5.76177 49.7432ZM12.7146 23.7827C14.8115 24.6947 16.9486 23.6994 17.2091 21.6875C17.3555 20.5399 16.8222 19.9836 15.6683 20.1646C14.3748 20.3634 13.3595 21.0981 12.4096 21.9376C11.2624 22.9573 11.303 23.1725 12.7053 23.7787L12.7146 23.7827Z" fill="#404040"/>
</svg>
