<svg width="22" height="6" viewBox="0 0 22 6" fill="none" xmlns="http://www.w3.org/2000/svg">
<path d="M2.12209 2.40489C4.36906 2.12668 6.61602 2.16145 8.85587 2.11177C11.3126 2.06209 13.7693 1.95776 16.2225 1.8733C17.8828 1.81368 19.5432 1.73419 21.2035 1.67458C21.399 1.66961 21.5981 1.71929 21.7937 1.764C21.9181 1.78884 22.0034 1.89814 21.9999 2.08693C21.9999 2.25088 21.911 2.35025 21.8115 2.37509C21.5626 2.43967 21.3066 2.51419 21.0542 2.51916C19.0383 2.53903 17.0224 2.64337 15.0066 2.80731C12.5818 3.00604 10.1607 3.1998 7.73239 3.27929C6.22849 3.32897 4.72459 3.41343 3.22069 3.48298C2.62339 3.51279 2.02966 3.4333 1.43592 3.33394C2.25009 3.92515 3.12469 4.27789 3.99575 4.64056C4.29439 4.76477 4.60015 4.85916 4.90236 4.9784C5.14412 5.07279 5.33966 5.25165 5.265 5.6491C5.19745 6.02171 4.96279 6.04158 4.74592 5.96209C3.40201 5.45037 2.0581 4.94859 0.77818 4.16362C0.660855 4.09407 0.547086 4.00464 0.443982 3.90528C-0.167533 3.31903 -0.146203 2.47942 0.500866 1.97763C1.21904 1.4212 2.01543 1.17776 2.80116 0.919417C3.81087 0.586551 4.81347 0.208971 5.84807 0.054958C5.96184 0.0400535 6.07206 0.0102453 6.18583 0.00527719C6.28182 0.000309042 6.39914 -0.0295007 6.44536 0.134448C6.50225 0.343111 6.37781 0.417633 6.27826 0.487187C5.66675 0.919416 5.01968 1.21254 4.3655 1.49075C3.61888 1.80872 2.86871 2.11177 2.12209 2.4198V2.40489Z" fill="#404040"/>
</svg>
