<svg width="54" height="20" viewBox="0 0 54 20" fill="none" xmlns="http://www.w3.org/2000/svg">
<path d="M49.7432 5.76177C48.0973 6.98802 46.3206 7.98399 44.9395 9.47151C44.3804 10.0715 43.219 10.7294 43.9692 11.642C44.7446 12.5878 45.4322 11.3837 46.0955 11.0032C48.0575 9.87363 50.0154 8.73477 51.9152 7.51068C54.316 5.96405 54.2406 4.0506 51.7334 2.72974C49.5512 1.57867 47.3021 0.554923 44.8381 0.138988C44.4569 0.0699828 43.9515 -0.188085 43.7292 0.246975C43.4508 0.782825 44.0494 1.00135 44.3595 1.26542C45.5997 2.32174 47.0711 3.01609 48.437 3.87618C48.7645 4.07787 49.1949 4.159 49.3713 4.60068C48.9345 4.84106 48.4951 4.68682 48.0659 4.66018C42.2417 4.30767 36.4293 4.34581 30.6779 5.51214C28.3582 5.9802 26.1766 6.85129 24.1071 7.96056C23.328 8.37919 22.883 8.31529 22.1977 7.81482C17.041 4.11239 11.3529 2.52604 5.02318 3.72901C3.59607 3.99406 2.19889 4.43326 0.887268 5.09992C0.362618 5.36659 -0.173039 5.73684 0.053142 6.39923C0.283276 7.07094 0.93866 7.03454 1.5068 6.87032C2.08425 6.70214 2.62753 6.42757 3.2064 6.23681C9.55104 4.21414 15.3182 5.62404 20.7186 9.20104C21.3192 9.60557 21.3181 9.91381 20.8059 10.417C19.5253 11.675 18.4608 13.1051 18.0316 14.892C17.6766 16.3616 17.8031 17.7478 19.0554 18.755C20.2985 19.7661 21.6852 19.6391 23.0578 19.0125C26.0826 17.6407 27.1415 14.4873 25.4777 11.5005C24.9113 10.4769 24.8786 9.98523 26.0436 9.41374C28.214 8.3606 30.484 7.67183 32.8353 7.27827C38.4237 6.32398 44.0887 6.24949 49.7525 5.75781L49.7432 5.76177ZM23.7827 12.7146C24.6947 14.8115 23.6994 16.9486 21.6875 17.2091C20.5399 17.3555 19.9836 16.8222 20.1646 15.6683C20.3634 14.3748 21.0981 13.3595 21.9376 12.4096C22.9573 11.2624 23.1725 11.303 23.7787 12.7053L23.7827 12.7146Z" fill="#404040"/>
</svg>
