<svg width="136" height="64" viewBox="0 0 136 64" fill="none" xmlns="http://www.w3.org/2000/svg">
<path d="M10.8751 10.2437C16.286 8.92601 21.7794 8.32206 26.8058 6.07103C28.8383 5.16512 32.4364 4.75335 31.53 1.67877C30.5962 -1.50562 27.6023 0.772875 25.5423 1.01994C19.4447 1.76113 13.3471 2.52978 7.30441 3.57294C-0.331327 4.89062 -2.17157 9.74955 2.69003 15.7065C6.91989 20.8949 11.4519 25.8362 17.1649 29.4873C18.0439 30.0638 19.0327 31.2442 20.0489 30.3932C21.3124 29.35 20.049 28.1696 19.5546 27.1813C17.577 23.2283 14.638 19.9341 12.1385 16.3379C11.5343 15.4869 10.5455 14.8281 10.5729 13.5379C11.9188 13.4006 12.8527 14.2516 13.8964 14.7732C28.0692 21.8283 42.6265 27.8951 58.2276 31.0795C64.5175 32.3697 70.8898 32.5069 77.2346 31.9305C79.6242 31.7109 80.6679 32.3422 81.849 34.3187C90.8031 49.0328 103.328 59.0252 120.412 62.7312C124.258 63.5822 128.213 63.9665 132.195 63.692C133.788 63.5822 135.519 63.2253 135.656 61.3311C135.793 59.4095 134.118 58.8056 132.525 58.6134C130.904 58.4213 129.256 58.5311 127.608 58.3938C109.618 56.7193 96.7084 47.0838 87.0127 32.4246C85.9415 30.7775 86.2711 30.0089 88.0839 29.2951C92.6159 27.5108 96.7908 25.0676 99.7572 21.0596C102.202 17.7654 103.355 14.1693 101.295 10.326C99.2628 6.48281 95.6647 5.32984 91.5722 5.43965C82.5631 5.65926 76.5754 12.4124 77.5642 21.6361C77.8938 24.793 77.4543 26.0558 73.9385 26.248C67.4015 26.5774 61.0017 25.8911 54.7119 24.3813C39.7425 20.84 25.5148 15.0203 10.8476 10.2437H10.8751ZM83.0849 20.4008C83.03 14.1967 87.7817 9.91426 93.0828 11.3966C96.1041 12.2476 96.9282 14.1693 95.2527 16.8595C93.385 19.8792 90.4735 21.6361 87.3697 23.1185C83.6068 24.9029 83.1124 24.5734 83.0849 20.4282V20.4008Z" fill="#404040"/>
</svg>
