<svg width="54" height="20" viewBox="0 0 54 20" fill="none" xmlns="http://www.w3.org/2000/svg">
<path d="M3.9228 5.76177C5.56875 6.98802 7.34545 7.98399 8.72654 9.47151C9.28564 10.0715 10.447 10.7294 9.69677 11.642C8.92138 12.5878 8.23379 11.3837 7.57049 11.0032C5.60856 9.87363 3.65059 8.73477 1.75078 7.51068C-0.649959 5.96405 -0.574559 4.0506 1.93263 2.72974C4.11481 1.57867 6.36391 0.554923 8.8279 0.138988C9.2091 0.0699828 9.71455 -0.188085 9.93678 0.246975C10.2152 0.782825 9.61658 1.00135 9.30653 1.26542C8.06635 2.32174 6.59489 3.01609 5.22905 3.87618C4.9015 4.07787 4.47117 4.159 4.29468 4.60068C4.73151 4.84106 5.17088 4.68682 5.60009 4.66018C11.4243 4.30767 17.2367 4.34581 22.9881 5.51214C25.3078 5.9802 27.4894 6.85129 29.5589 7.96056C30.338 8.37919 30.783 8.31529 31.4683 7.81482C36.625 4.11239 42.3132 2.52604 48.6428 3.72901C50.0699 3.99406 51.4671 4.43326 52.7787 5.09992C53.3034 5.36659 53.8391 5.73684 53.6129 6.39923C53.3827 7.07094 52.7274 7.03454 52.1592 6.87032C51.5818 6.70214 51.0385 6.42757 50.4596 6.23681C44.115 4.21414 38.3478 5.62404 32.9474 9.20104C32.3468 9.60557 32.3479 9.91381 32.8601 10.417C34.1407 11.675 35.2053 13.1051 35.6345 14.892C35.9894 16.3616 35.8629 17.7478 34.6106 18.755C33.3676 19.7661 31.9808 19.6391 30.6082 19.0125C27.5834 17.6407 26.5245 14.4873 28.1883 11.5005C28.7547 10.4769 28.7875 9.98523 27.6224 9.41374C25.4521 8.3606 23.1821 7.67183 20.8307 7.27827C15.2423 6.32398 9.57732 6.24949 3.91347 5.75781L3.9228 5.76177ZM29.8834 12.7146C28.9713 14.8115 29.9667 16.9486 31.9786 17.2091C33.1261 17.3555 33.6824 16.8222 33.5014 15.6683C33.3026 14.3748 32.5679 13.3595 31.7284 12.4096C30.7087 11.2624 30.4936 11.303 29.8873 12.7053L29.8834 12.7146Z" fill="#404040"/>
</svg>
