<svg width="14" height="14" viewBox="0 0 14 14" fill="none" xmlns="http://www.w3.org/2000/svg">
<path d="M13.9961 0.335333C13.9615 0.676876 13.7035 0.876429 13.4917 1.10284C11.8706 2.83358 10.3034 4.61805 8.59755 6.26053C7.76966 7.05874 7.7889 7.58448 8.48972 8.39421C9.49474 9.55315 10.288 10.8771 11.0042 12.2356C11.1428 12.4966 11.4239 12.8074 11.1428 13.0876C10.8078 13.4253 10.4843 13.1029 10.2148 12.9187C8.98259 12.0591 7.7966 11.1419 6.80313 10.006C5.91748 8.99287 5.90209 8.97369 4.88937 9.91389C3.66486 11.0536 2.4827 12.2394 1.26589 13.3869C0.965539 13.6709 0.665186 14.2772 0.180004 13.8551C-0.228165 13.4982 0.153064 13.007 0.387954 12.6309C1.37757 11.0575 2.58666 9.65678 3.93439 8.39039C4.56205 7.80324 4.57361 7.38493 4.01912 6.76324C3.25284 5.90747 2.54047 4.99797 2.07454 3.93112C1.75109 3.19431 1.66252 2.44216 2.47885 2.02003C3.28749 1.60173 3.70721 2.18889 4.13463 2.82209C4.71223 3.68938 5.4246 4.46457 6.0561 5.29732C6.47197 5.84609 6.79929 5.56976 7.17666 5.25125C9.01342 3.69703 10.8617 2.15435 12.71 0.61549C12.9488 0.415937 13.2145 0.239404 13.484 0.0820642C13.7536 -0.0752757 13.9499 -0.0138654 14 0.331515L13.9961 0.335333Z" fill="#1E1E1E"/>
</svg>
