<svg width="20" height="20" viewBox="0 0 20 20" fill="none" xmlns="http://www.w3.org/2000/svg">
<path d="M19.5642 17.617C19.2754 17.5731 19.0443 17.4214 18.8088 17.2777C18.0356 16.7947 17.338 16.2199 16.6625 15.6371C14.1119 13.4416 11.739 11.0944 9.37494 8.7432C9.13943 8.51168 8.97058 8.22027 8.78394 7.95282C8.69063 7.8171 8.59286 7.65343 8.74839 7.51771C8.88169 7.39796 9.05056 7.48579 9.1972 7.53768C10.2059 7.88497 10.948 8.55558 11.699 9.21024C13.6097 10.8748 15.3161 12.7151 17.1202 14.4675C18.0001 15.3217 18.8888 16.168 19.7687 17.0182C19.8975 17.146 20.0664 17.2737 19.9731 17.4733C19.902 17.633 19.7287 17.637 19.5642 17.621L19.5642 17.617Z" fill="#404040"/>
<path d="M16.8975 19.9898C16.6087 19.9459 16.3776 19.7942 16.1421 19.6505C15.3689 19.1675 14.6712 18.5927 13.9958 18.0099C11.4451 15.8144 9.07222 13.4672 6.70819 11.116C6.47268 10.8845 6.30383 10.5931 6.11719 10.3256C6.02388 10.1899 5.92611 10.0262 6.08164 9.89052C6.21495 9.77076 6.38381 9.85859 6.53045 9.91048C7.53916 10.2578 8.28125 10.9284 9.03223 11.583C10.943 13.2476 12.6494 15.0879 14.4535 16.8403C15.3333 17.6945 16.2221 18.5408 17.1019 19.391C17.2308 19.5188 17.3996 19.6465 17.3063 19.8461C17.2352 20.0058 17.0619 20.0098 16.8975 19.9938L16.8975 19.9898Z" fill="#404040"/>
<path d="M0.0014857 2.71568C-0.0442919 0.240382 0.898722 -0.494752 3.19677 0.314839C6.64841 1.52457 10.1275 2.67847 13.4235 4.32557C14.0095 4.61404 14.6321 4.88389 15.0624 5.41431C15.3004 5.70278 15.511 6.02848 15.3004 6.42862C15.1173 6.78224 14.7785 6.80086 14.4398 6.79155C13.5059 6.76364 12.6453 6.42863 11.7938 6.12155C9.17536 5.18168 6.56602 4.20458 3.94753 3.26471C3.59046 3.13443 3.18763 2.7436 2.83971 3.0693C2.54674 3.33916 2.81225 3.77651 2.86718 4.13013C3.40736 7.57321 4.33207 10.9605 4.26798 14.4873C4.26798 15.0084 4.56095 15.8273 3.92006 15.9669C3.27002 16.1158 3.21507 15.2504 3.02281 14.7665C1.40227 10.6534 0.0472633 5.20029 0.0014857 2.71568Z" fill="#404040"/>
</svg>
