<svg width="35" height="33" viewBox="0 0 35 33" fill="none" xmlns="http://www.w3.org/2000/svg">
<g filter="url(#filter0_d_115_208)">
<path d="M12.3007 1.7879C12.3532 1.56037 12.5801 1.4185 12.8075 1.47103L22.2768 3.65864C22.5042 3.71117 22.6457 3.93821 22.5933 4.16574L21.548 8.69755C21.4952 8.92507 21.2683 9.06693 21.0409 9.01441L11.5718 6.82679C11.3445 6.77428 11.2027 6.54722 11.2552 6.3197L12.3007 1.7879Z" fill="url(#paint0_linear_115_208)"/>
<mask id="mask0_115_208" style="mask-type:luminance" maskUnits="userSpaceOnUse" x="11" y="1" width="12" height="9">
<path d="M12.3007 1.7879C12.3532 1.56037 12.5801 1.4185 12.8075 1.47103L22.2768 3.65864C22.5042 3.71117 22.6457 3.93821 22.5933 4.16574L21.548 8.69755C21.4952 8.92507 21.2683 9.06693 21.0409 9.01441L11.5718 6.82679C11.3445 6.77428 11.2027 6.54722 11.2552 6.3197L12.3007 1.7879Z" fill="white"/>
</mask>
<g mask="url(#mask0_115_208)">
<path d="M12.3007 1.78789C12.3795 1.4466 12.7198 1.2338 13.0609 1.31259L22.1184 3.40509C22.4594 3.48388 22.6719 3.82443 22.5933 4.16573C22.6195 4.05197 22.4564 3.91716 22.2291 3.86463L12.76 1.67702C12.5326 1.62449 12.327 1.67413 12.3007 1.78789Z" fill="#535353"/>
</g>
</g>
<g filter="url(#filter1_d_115_208)">
<path d="M32.3932 9.47795L9.74935 4.24671C9.52197 4.19418 9.29509 4.33605 9.2426 4.56358L6.01091 18.571C5.95841 18.7985 6.10018 19.0255 6.32756 19.0781L28.9714 24.3093C29.1987 24.3618 29.4256 24.22 29.4781 23.9924L32.7098 9.98505C32.7623 9.75752 32.6205 9.53048 32.3932 9.47795Z" fill="url(#paint1_linear_115_208)"/>
</g>
<path d="M25.6875 10.9664L8.67236 7.03545L7.81692 10.7433L24.8321 14.6742L25.6875 10.9664Z" fill="url(#paint2_linear_115_208)"/>
<g filter="url(#filter2_d_115_208)">
<path d="M24.987 7.33294C25.0394 7.10543 25.2663 6.96357 25.4937 7.01608L32.9949 8.74905C33.2223 8.8016 33.3642 9.02862 33.3118 9.25618L29.8001 24.4761C29.7477 24.7036 29.5208 24.8455 29.2935 24.7929L21.7923 23.06C21.5649 23.0075 21.423 22.7804 21.4754 22.5529L24.987 7.33294Z" fill="url(#paint3_linear_115_208)"/>
<mask id="mask1_115_208" style="mask-type:luminance" maskUnits="userSpaceOnUse" x="21" y="7" width="13" height="18">
<path d="M24.987 7.33294C25.0394 7.10543 25.2663 6.96357 25.4937 7.01608L32.9949 8.74905C33.2223 8.8016 33.3642 9.02862 33.3118 9.25618L29.8001 24.4761C29.7477 24.7036 29.5208 24.8455 29.2935 24.7929L21.7923 23.06C21.5649 23.0075 21.423 22.7804 21.4754 22.5529L24.987 7.33294Z" fill="white"/>
</mask>
<g mask="url(#mask1_115_208)">
<path d="M24.7813 7.28538C24.8599 6.94412 25.2 6.73132 25.5415 6.81009L32.8369 8.49553C33.1779 8.5743 33.3905 8.91488 33.3119 9.25618C33.3381 9.1424 33.175 9.0076 32.9477 8.95505L25.4464 7.22208C25.3327 7.19583 25.2191 7.26673 25.1929 7.38051L24.7813 7.28538ZM21.7923 23.06C21.4513 22.9812 21.2384 22.6406 21.3174 22.2993L24.7813 7.28538C24.8599 6.94412 25.2 6.73132 25.5415 6.81009L25.4464 7.22208C25.3327 7.19583 25.2191 7.26673 25.1929 7.38051L21.6816 22.6005C21.6288 22.828 21.6786 23.0337 21.7923 23.06Z" fill="#404040"/>
</g>
</g>
<defs>
<filter id="filter0_d_115_208" x="9.24426" y="-1.5399" width="19.36" height="15.5652" filterUnits="userSpaceOnUse" color-interpolation-filters="sRGB">
<feFlood flood-opacity="0" result="BackgroundImageFix"/>
<feColorMatrix in="SourceAlpha" type="matrix" values="0 0 0 0 0 0 0 0 0 0 0 0 0 0 0 0 0 0 127 0" result="hardAlpha"/>
<feOffset dx="2" dy="1"/>
<feGaussianBlur stdDeviation="2"/>
<feComposite in2="hardAlpha" operator="out"/>
<feColorMatrix type="matrix" values="0 0 0 0 0 0 0 0 0 0 0 0 0 0 0 0 0 0 0.25 0"/>
<feBlend mode="normal" in2="BackgroundImageFix" result="effect1_dropShadow_115_208"/>
<feBlend mode="normal" in="SourceGraphic" in2="effect1_dropShadow_115_208" result="shape"/>
</filter>
<filter id="filter1_d_115_208" x="0" y="4.23578" width="34.7207" height="28.0845" filterUnits="userSpaceOnUse" color-interpolation-filters="sRGB">
<feFlood flood-opacity="0" result="BackgroundImageFix"/>
<feColorMatrix in="SourceAlpha" type="matrix" values="0 0 0 0 0 0 0 0 0 0 0 0 0 0 0 0 0 0 127 0" result="hardAlpha"/>
<feOffset dx="-2" dy="4"/>
<feGaussianBlur stdDeviation="2"/>
<feComposite in2="hardAlpha" operator="out"/>
<feColorMatrix type="matrix" values="0 0 0 0 0 0 0 0 0 0 0 0 0 0 0 0 0 0 0.25 0"/>
<feBlend mode="normal" in2="BackgroundImageFix" result="effect1_dropShadow_115_208"/>
<feBlend mode="normal" in="SourceGraphic" in2="effect1_dropShadow_115_208" result="shape"/>
</filter>
<filter id="filter2_d_115_208" x="16.4645" y="3.00516" width="19.8583" height="25.7987" filterUnits="userSpaceOnUse" color-interpolation-filters="sRGB">
<feFlood flood-opacity="0" result="BackgroundImageFix"/>
<feColorMatrix in="SourceAlpha" type="matrix" values="0 0 0 0 0 0 0 0 0 0 0 0 0 0 0 0 0 0 127 0" result="hardAlpha"/>
<feOffset dx="-1"/>
<feGaussianBlur stdDeviation="2"/>
<feComposite in2="hardAlpha" operator="out"/>
<feColorMatrix type="matrix" values="0 0 0 0 0 0 0 0 0 0 0 0 0 0 0 0 0 0 0.25 0"/>
<feBlend mode="normal" in2="BackgroundImageFix" result="effect1_dropShadow_115_208"/>
<feBlend mode="normal" in="SourceGraphic" in2="effect1_dropShadow_115_208" result="shape"/>
</filter>
<linearGradient id="paint0_linear_115_208" x1="22.0706" y1="6.43162" x2="11.7772" y2="4.05683" gradientUnits="userSpaceOnUse">
<stop stop-color="#404040"/>
<stop offset="0.639423" stop-color="#615E5E"/>
<stop offset="1" stop-color="#404040"/>
</linearGradient>
<linearGradient id="paint1_linear_115_208" x1="9.33765" y1="4.1516" x2="19.8007" y2="21.8734" gradientUnits="userSpaceOnUse">
<stop stop-color="#222222"/>
<stop offset="0.504808" stop-color="#404040"/>
</linearGradient>
<linearGradient id="paint2_linear_115_208" x1="17.18" y1="9.00092" x2="16.3235" y2="12.7085" gradientUnits="userSpaceOnUse">
<stop stop-color="#666565"/>
<stop offset="0.267791" stop-color="#504F4F"/>
<stop offset="1" stop-color="#302E2E"/>
</linearGradient>
<linearGradient id="paint3_linear_115_208" x1="25.0821" y1="6.92099" x2="33.2601" y2="23.0899" gradientUnits="userSpaceOnUse">
<stop stop-color="#2C2C2C"/>
<stop offset="0.34898" stop-color="#404040"/>
</linearGradient>
</defs>
</svg>
