<svg width="60" height="60" viewBox="0 0 60 60" fill="none" xmlns="http://www.w3.org/2000/svg">
<rect width="60" height="60" rx="14" fill="white"/>
<path d="M47.6789 12.322C37.9157 2.55989 22.0862 2.5588 12.322 12.322C2.5588 22.0851 2.55989 37.9146 12.322 47.6789C22.0851 57.4398 37.9146 57.4409 47.6789 47.6789C57.4409 37.9146 57.4398 22.0862 47.6789 12.322ZM33.2602 40.8701C33.2602 42.6712 31.8004 44.131 29.9993 44.131C28.1982 44.131 26.7384 42.6712 26.7384 40.8701V27.8265C26.7384 26.0254 28.1982 24.5656 29.9993 24.5656C31.8004 24.5656 33.2602 26.0254 33.2602 27.8265V40.8701ZM29.9417 22.2525C28.0634 22.2525 26.8112 20.922 26.8504 19.2796C26.8112 17.5579 28.0634 16.2676 29.9798 16.2676C31.8972 16.2676 33.1102 17.559 33.1504 19.2796C33.1494 20.922 31.8983 22.2525 29.9417 22.2525Z" fill="#38C64C"/>
</svg>
