<svg width="20" height="20" viewBox="0 0 20 20" fill="none" xmlns="http://www.w3.org/2000/svg">
<path fill-rule="evenodd" clip-rule="evenodd" d="M3.6044 17.7691C2.9459 18.2687 2 17.799 2 16.9724V3.02764C2 2.20106 2.9459 1.73137 3.6044 2.23095L12.7952 9.2033C13.3227 9.6035 13.3227 10.3965 12.7952 10.7967L3.6044 17.7691ZM0 16.9724C0 19.4521 2.8376 20.8612 4.8132 19.3625L14.004 12.3901C15.5865 11.1896 15.5865 8.8104 14.004 7.60994L4.8132 0.637566C2.8376 -0.861155 0 0.547896 0 3.02764V16.9724Z" fill="#404040"/>
<path d="M20 1C20 0.44772 19.5523 0 19 0C18.4477 0 18 0.44772 18 1V19C18 19.5523 18.4477 20 19 20C19.5523 20 20 19.5523 20 19V1Z" fill="#404040"/>
</svg>
