<svg width="20" height="20" viewBox="0 0 20 20" fill="none" xmlns="http://www.w3.org/2000/svg">
<path fill-rule="evenodd" clip-rule="evenodd" d="M16.3956 17.7691C17.0541 18.2687 18 17.799 18 16.9724V3.02763C18 2.20105 17.0541 1.73136 16.3956 2.23094L7.20476 9.20329C6.67727 9.60349 6.67727 10.3965 7.20476 10.7967L16.3956 17.7691ZM20 16.9724C20 19.4521 17.1624 20.8612 15.1868 19.3625L5.99598 12.3901C4.41353 11.1896 4.41353 8.81039 5.99599 7.60993L15.1868 0.637565C17.1624 -0.861154 20 0.547895 20 3.02763V16.9724Z" fill="#404040"/>
<path d="M0 0.999999C0 0.44772 0.44772 0 0.999999 0C1.55228 0 2 0.44772 2 0.999999V19C2 19.5523 1.55228 20 0.999999 20C0.44772 20 0 19.5523 0 19V0.999999Z" fill="#404040"/>
</svg>
