<svg width="67" height="191" viewBox="0 0 67 191" fill="none" xmlns="http://www.w3.org/2000/svg">
<g clip-path="url(#clip0_28_373)">
<g filter="url(#filter0_d_28_373)">
<path d="M55.2488 24.38C55.0233 24.3201 54.7919 24.4545 54.7321 24.6802L20.7505 152.739C20.6907 152.965 20.8249 153.197 21.0505 153.257L24.3175 154.125C24.5431 154.185 24.7745 154.05 24.8344 153.825L58.8156 25.7651C58.8759 25.5395 58.7414 25.308 58.5159 25.248L55.2488 24.38Z" fill="url(#paint0_linear_28_373)"/>
<path d="M58.946 25.2185L54.8621 24.1335C54.6366 24.0736 54.4052 24.208 54.3453 24.4337L51.7427 34.2416C51.6828 34.4673 51.8171 34.6988 52.0426 34.7587L56.1265 35.8437C56.352 35.9036 56.5834 35.7692 56.6433 35.5435L59.2459 25.7357C59.3058 25.51 59.1715 25.2784 58.946 25.2185Z" fill="url(#paint1_linear_28_373)"/>
<path d="M25.0418 153.053L20.9579 151.968C20.7324 151.908 20.501 152.043 20.4411 152.268L17.8385 162.076C17.7786 162.302 17.9129 162.533 18.1385 162.593L22.2223 163.678C22.4479 163.738 22.6792 163.604 22.7391 163.378L25.3417 153.57C25.4016 153.345 25.2673 153.113 25.0418 153.053Z" fill="url(#paint2_linear_28_373)"/>
<path d="M24.7273 157.526L19.0099 156.007C18.7844 155.947 18.553 156.082 18.4931 156.307L15.8905 166.115C15.8306 166.341 15.9649 166.573 16.1905 166.632L21.9078 168.151C22.1334 168.211 22.3648 168.077 22.4247 167.851L25.0273 158.043C25.0871 157.818 24.9529 157.586 24.7273 157.526Z" fill="url(#paint3_linear_28_373)"/>
</g>
<g filter="url(#filter1_d_28_373)">
<path d="M16.4438 184.387L12.9775 180.685C12.8179 180.514 12.5505 180.505 12.3802 180.665L11.4551 181.532C11.2848 181.692 11.2761 181.959 11.4356 182.13L14.902 185.833C15.0615 186.003 15.3289 186.012 15.4992 185.852L16.4243 184.985C16.5946 184.825 16.6034 184.558 16.4438 184.387Z" fill="url(#paint4_linear_28_373)"/>
</g>
<g filter="url(#filter2_d_28_373)">
<path d="M17.2491 162.592C18.1007 161.794 19.4376 161.837 20.2353 162.689L24.5683 167.318C25.3659 168.17 25.3222 169.508 24.4707 170.306L9.97706 183.893C9.12553 184.691 7.78858 184.647 6.99091 183.795L2.65794 179.166C1.86028 178.314 1.90394 176.977 2.75549 176.178L17.2491 162.592Z" fill="#2C2C2C"/>
<mask id="mask0_28_373" style="mask-type:luminance" maskUnits="userSpaceOnUse" x="2" y="162" width="24" height="23">
<path d="M17.2491 162.592C18.1007 161.794 19.4376 161.837 20.2353 162.689L24.5683 167.318C25.3659 168.17 25.3222 169.508 24.4707 170.306L9.97706 183.893C9.12553 184.691 7.78858 184.647 6.99091 183.795L2.65794 179.166C1.86028 178.314 1.90394 176.977 2.75549 176.178L17.2491 162.592Z" fill="white"/>
</mask>
<g mask="url(#mask0_28_373)">
<path d="M16.9602 162.283C17.9821 161.326 19.5865 161.378 20.5437 162.4L24.5878 166.72C25.545 167.743 25.4926 169.348 24.4707 170.306C25.1519 169.667 25.0575 168.459 24.2599 167.607L19.9269 162.978C19.2888 162.297 18.2192 162.262 17.538 162.9L16.9602 162.283ZM2.65795 179.166C1.70074 178.144 1.75315 176.539 2.775 175.581L16.9602 162.283C17.9821 161.326 19.5865 161.378 20.5437 162.4L19.9269 162.978C19.2888 162.297 18.2192 162.262 17.538 162.9L3.04436 176.487C2.19281 177.285 2.01981 178.485 2.65795 179.166Z" fill="#404040"/>
</g>
</g>
<g filter="url(#filter3_d_28_373)">
<path d="M43.7252 3.01494C43.785 2.78924 44.0164 2.65486 44.242 2.71478L53.6349 5.21019C53.8604 5.2701 53.9945 5.50164 53.9347 5.72734L52.742 10.2226C52.6818 10.4483 52.4504 10.5827 52.2249 10.5228L42.8322 8.02737C42.6067 7.96747 42.4724 7.73591 42.5323 7.51022L43.7252 3.01494Z" fill="url(#paint5_linear_28_373)"/>
<mask id="mask1_28_373" style="mask-type:luminance" maskUnits="userSpaceOnUse" x="42" y="2" width="12" height="9">
<path d="M43.7252 3.01494C43.785 2.78924 44.0164 2.65486 44.242 2.71478L53.6349 5.21019C53.8604 5.2701 53.9945 5.50164 53.9347 5.72734L52.742 10.2226C52.6818 10.4483 52.4504 10.5827 52.2249 10.5228L42.8322 8.02737C42.6067 7.96747 42.4724 7.73591 42.5323 7.51022L43.7252 3.01494Z" fill="white"/>
</mask>
<g mask="url(#mask1_28_373)">
<path d="M43.7251 3.01494C43.815 2.6764 44.1621 2.47481 44.5004 2.56469L53.4848 4.9516C53.823 5.04148 54.0243 5.38878 53.9347 5.72734C53.9645 5.61448 53.8059 5.47443 53.5804 5.41451L44.1877 2.91911C43.9622 2.85919 43.7551 2.90209 43.7251 3.01494Z" fill="#535353"/>
</g>
</g>
<g filter="url(#filter4_d_28_373)">
<path d="M63.5559 11.3565L41.0948 5.3892C40.8692 5.32928 40.6379 5.46366 40.578 5.68936L36.891 19.5839C36.8311 19.8095 36.9654 20.0411 37.1909 20.101L59.652 26.0683C59.8775 26.1282 60.1089 25.9938 60.1688 25.7681L63.8558 11.8736C63.9157 11.6479 63.7814 11.4164 63.5559 11.3565Z" fill="url(#paint6_linear_28_373)"/>
</g>
<path d="M56.8052 12.6253L39.9274 8.14132L38.9514 11.8193L55.8293 16.3032L56.8052 12.6253Z" fill="url(#paint7_linear_28_373)"/>
<g filter="url(#filter5_d_28_373)">
<path d="M56.2236 8.97096C56.2834 8.74528 56.5148 8.6109 56.7403 8.6708L64.181 10.6476C64.4065 10.7075 64.541 10.9391 64.4812 11.1648L60.4748 26.262C60.415 26.4877 60.1836 26.6221 59.9581 26.5622L52.5174 24.5854C52.2919 24.5255 52.1574 24.2939 52.2172 24.0682L56.2236 8.97096Z" fill="url(#paint8_linear_28_373)"/>
<mask id="mask2_28_373" style="mask-type:luminance" maskUnits="userSpaceOnUse" x="52" y="8" width="13" height="19">
<path d="M56.2236 8.97096C56.2834 8.74528 56.5148 8.6109 56.7403 8.6708L64.181 10.6476C64.4065 10.7075 64.541 10.9391 64.4812 11.1648L60.4748 26.262C60.415 26.4877 60.1836 26.6221 59.9581 26.5622L52.5174 24.5854C52.2919 24.5255 52.1574 24.2939 52.2172 24.0682L56.2236 8.97096Z" fill="white"/>
</mask>
<g mask="url(#mask2_28_373)">
<path d="M56.0195 8.91671C56.1092 8.5782 56.4561 8.37661 56.7948 8.46647L64.0314 10.3891C64.3696 10.4789 64.5709 10.8262 64.4812 11.1648C64.5111 11.0519 64.3525 10.9119 64.127 10.8519L56.6863 8.87515C56.5736 8.8452 56.4576 8.91236 56.4277 9.02522L56.0195 8.91671ZM52.5174 24.5854C52.1792 24.4955 51.9774 24.1482 52.0676 23.8097L56.0195 8.91671C56.1092 8.5782 56.4561 8.37661 56.7948 8.46647L56.6863 8.87515C56.5736 8.8452 56.4576 8.91236 56.4277 9.02522L52.4218 24.1225C52.3615 24.3482 52.4047 24.5554 52.5174 24.5854Z" fill="#404040"/>
</g>
</g>
</g>
<defs>
<filter id="filter0_d_28_373" x="11.8762" y="24.1193" width="51.3839" height="152.046" filterUnits="userSpaceOnUse" color-interpolation-filters="sRGB">
<feFlood flood-opacity="0" result="BackgroundImageFix"/>
<feColorMatrix in="SourceAlpha" type="matrix" values="0 0 0 0 0 0 0 0 0 0 0 0 0 0 0 0 0 0 127 0" result="hardAlpha"/>
<feOffset dy="4"/>
<feGaussianBlur stdDeviation="2"/>
<feComposite in2="hardAlpha" operator="out"/>
<feColorMatrix type="matrix" values="0 0 0 0 0 0 0 0 0 0 0 0 0 0 0 0 0 0 0.25 0"/>
<feBlend mode="normal" in2="BackgroundImageFix" result="effect1_dropShadow_28_373"/>
<feBlend mode="normal" in="SourceGraphic" in2="effect1_dropShadow_28_373" result="shape"/>
</filter>
<filter id="filter1_d_28_373" x="7.32141" y="180.551" width="13.2366" height="13.4157" filterUnits="userSpaceOnUse" color-interpolation-filters="sRGB">
<feFlood flood-opacity="0" result="BackgroundImageFix"/>
<feColorMatrix in="SourceAlpha" type="matrix" values="0 0 0 0 0 0 0 0 0 0 0 0 0 0 0 0 0 0 127 0" result="hardAlpha"/>
<feOffset dy="4"/>
<feGaussianBlur stdDeviation="2"/>
<feComposite in2="hardAlpha" operator="out"/>
<feColorMatrix type="matrix" values="0 0 0 0 0 0 0 0 0 0 0 0 0 0 0 0 0 0 0.25 0"/>
<feBlend mode="normal" in2="BackgroundImageFix" result="effect1_dropShadow_28_373"/>
<feBlend mode="normal" in="SourceGraphic" in2="effect1_dropShadow_28_373" result="shape"/>
</filter>
<filter id="filter2_d_28_373" x="-1.91284" y="162.021" width="31.0519" height="30.4431" filterUnits="userSpaceOnUse" color-interpolation-filters="sRGB">
<feFlood flood-opacity="0" result="BackgroundImageFix"/>
<feColorMatrix in="SourceAlpha" type="matrix" values="0 0 0 0 0 0 0 0 0 0 0 0 0 0 0 0 0 0 127 0" result="hardAlpha"/>
<feOffset dy="4"/>
<feGaussianBlur stdDeviation="2"/>
<feComposite in2="hardAlpha" operator="out"/>
<feColorMatrix type="matrix" values="0 0 0 0 0 0 0 0 0 0 0 0 0 0 0 0 0 0 0.25 0"/>
<feBlend mode="normal" in2="BackgroundImageFix" result="effect1_dropShadow_28_373"/>
<feBlend mode="normal" in="SourceGraphic" in2="effect1_dropShadow_28_373" result="shape"/>
</filter>
<filter id="filter3_d_28_373" x="40.5181" y="-0.299484" width="19.4308" height="15.8365" filterUnits="userSpaceOnUse" color-interpolation-filters="sRGB">
<feFlood flood-opacity="0" result="BackgroundImageFix"/>
<feColorMatrix in="SourceAlpha" type="matrix" values="0 0 0 0 0 0 0 0 0 0 0 0 0 0 0 0 0 0 127 0" result="hardAlpha"/>
<feOffset dx="2" dy="1"/>
<feGaussianBlur stdDeviation="2"/>
<feComposite in2="hardAlpha" operator="out"/>
<feColorMatrix type="matrix" values="0 0 0 0 0 0 0 0 0 0 0 0 0 0 0 0 0 0 0.25 0"/>
<feBlend mode="normal" in2="BackgroundImageFix" result="effect1_dropShadow_28_373"/>
<feBlend mode="normal" in="SourceGraphic" in2="effect1_dropShadow_28_373" result="shape"/>
</filter>
<filter id="filter4_d_28_373" x="30.8767" y="5.37493" width="34.9933" height="28.7076" filterUnits="userSpaceOnUse" color-interpolation-filters="sRGB">
<feFlood flood-opacity="0" result="BackgroundImageFix"/>
<feColorMatrix in="SourceAlpha" type="matrix" values="0 0 0 0 0 0 0 0 0 0 0 0 0 0 0 0 0 0 127 0" result="hardAlpha"/>
<feOffset dx="-2" dy="4"/>
<feGaussianBlur stdDeviation="2"/>
<feComposite in2="hardAlpha" operator="out"/>
<feColorMatrix type="matrix" values="0 0 0 0 0 0 0 0 0 0 0 0 0 0 0 0 0 0 0.25 0"/>
<feBlend mode="normal" in2="BackgroundImageFix" result="effect1_dropShadow_28_373"/>
<feBlend mode="normal" in="SourceGraphic" in2="effect1_dropShadow_28_373" result="shape"/>
</filter>
<filter id="filter5_d_28_373" x="47.203" y="4.65655" width="20.2925" height="25.9199" filterUnits="userSpaceOnUse" color-interpolation-filters="sRGB">
<feFlood flood-opacity="0" result="BackgroundImageFix"/>
<feColorMatrix in="SourceAlpha" type="matrix" values="0 0 0 0 0 0 0 0 0 0 0 0 0 0 0 0 0 0 127 0" result="hardAlpha"/>
<feOffset dx="-1"/>
<feGaussianBlur stdDeviation="2"/>
<feComposite in2="hardAlpha" operator="out"/>
<feColorMatrix type="matrix" values="0 0 0 0 0 0 0 0 0 0 0 0 0 0 0 0 0 0 0.25 0"/>
<feBlend mode="normal" in2="BackgroundImageFix" result="effect1_dropShadow_28_373"/>
<feBlend mode="normal" in="SourceGraphic" in2="effect1_dropShadow_28_373" result="shape"/>
</filter>
<linearGradient id="paint0_linear_28_373" x1="37.6754" y1="88.9579" x2="41.7596" y2="90.0414" gradientUnits="userSpaceOnUse">
<stop stop-color="#2C2C2C"/>
<stop offset="0.25" stop-color="#777575"/>
<stop offset="0.5" stop-color="#EAEBEF"/>
<stop offset="0.75" stop-color="#777575"/>
<stop offset="1" stop-color="#2C2C2C"/>
</linearGradient>
<linearGradient id="paint1_linear_28_373" x1="57.398" y1="32.6996" x2="52.6805" y2="31.4455" gradientUnits="userSpaceOnUse">
<stop stop-color="#C0C0C0"/>
<stop offset="0.163462" stop-color="#222222"/>
<stop offset="0.548077" stop-color="#8E8E8E"/>
<stop offset="0.716346" stop-color="#555555"/>
<stop offset="1" stop-color="#222222"/>
</linearGradient>
<linearGradient id="paint2_linear_28_373" x1="23.4938" y1="160.534" x2="18.7763" y2="159.28" gradientUnits="userSpaceOnUse">
<stop stop-color="#C0C0C0"/>
<stop offset="0.163462" stop-color="#222222"/>
<stop offset="0.548077" stop-color="#8E8E8E"/>
<stop offset="0.716346" stop-color="#555555"/>
<stop offset="1" stop-color="#222222"/>
</linearGradient>
<linearGradient id="paint3_linear_28_373" x1="23.1793" y1="165.007" x2="16.8897" y2="163.334" gradientUnits="userSpaceOnUse">
<stop stop-color="#C0C0C0"/>
<stop offset="0.163462" stop-color="#222222"/>
<stop offset="0.548077" stop-color="#8E8E8E"/>
<stop offset="0.716346" stop-color="#555555"/>
<stop offset="1" stop-color="#222222"/>
</linearGradient>
<linearGradient id="paint4_linear_28_373" x1="13.1688" y1="183.981" x2="14.7116" y2="182.537" gradientUnits="userSpaceOnUse">
<stop stop-color="#747474"/>
<stop offset="0.5" stop-color="#404040"/>
<stop offset="1" stop-color="#747474"/>
</linearGradient>
<linearGradient id="paint5_linear_28_373" x1="53.3383" y1="7.97496" x2="43.1279" y2="5.26558" gradientUnits="userSpaceOnUse">
<stop stop-color="#404040"/>
<stop offset="0.639423" stop-color="#615E5E"/>
<stop offset="1" stop-color="#404040"/>
</linearGradient>
<linearGradient id="paint6_linear_28_373" x1="40.6864" y1="5.2807" x2="50.5657" y2="23.3344" gradientUnits="userSpaceOnUse">
<stop stop-color="#222222"/>
<stop offset="0.504808" stop-color="#404040"/>
</linearGradient>
<linearGradient id="paint7_linear_28_373" x1="48.3664" y1="10.3833" x2="47.3893" y2="14.061" gradientUnits="userSpaceOnUse">
<stop stop-color="#666565"/>
<stop offset="0.267791" stop-color="#504F4F"/>
<stop offset="1" stop-color="#302E2E"/>
</linearGradient>
<linearGradient id="paint8_linear_28_373" x1="56.3321" y1="8.56233" x2="63.9782" y2="24.9895" gradientUnits="userSpaceOnUse">
<stop stop-color="#2C2C2C"/>
<stop offset="0.34898" stop-color="#404040"/>
</linearGradient>
<clipPath id="clip0_28_373">
<rect width="60" height="189" fill="white" transform="translate(6.16663) rotate(1.86975)"/>
</clipPath>
</defs>
</svg>
