<svg width="70" height="70" viewBox="0 0 70 70" fill="none" xmlns="http://www.w3.org/2000/svg">
<rect width="70" height="70" rx="14" fill="white"/>
<path d="M40.2033 35.0058C40.2033 36.3926 39.654 37.7227 38.676 38.7035C37.6981 39.6843 36.3717 40.2356 34.9883 40.2363C33.6046 40.2363 32.2776 39.6852 31.2991 38.7043C30.3207 37.7234 29.771 36.393 29.771 35.0058C29.771 33.6191 30.3204 32.289 31.2983 31.3082C32.2762 30.3274 33.6027 29.7761 34.986 29.7754C36.3697 29.7754 37.6968 30.3265 38.6752 31.3074C39.6536 32.2883 40.2033 33.6187 40.2033 35.0058ZM46.382 10C43.2413 10 39.1323 12.2456 34.9767 16.1333C30.8233 12.2667 26.712 10.0468 23.5737 10.0468C22.617 10.0468 21.7467 10.2643 20.993 10.6971C17.7847 12.552 17.066 18.3322 18.7227 25.586C11.62 27.7848 7 31.3006 7 35.0058C7 38.7251 11.6433 42.2503 18.767 44.4327C17.1243 51.7146 17.857 57.5041 21.0723 59.3567C21.819 59.7942 22.6823 60 23.6437 60C26.782 60 30.8933 57.7544 35.049 53.862C39.2023 57.731 43.3137 59.9509 46.452 59.9509C47.4087 59.9509 48.279 59.7403 49.0327 59.3076C52.2387 57.455 52.9597 51.6749 51.303 44.4187C58.38 42.2386 63 38.7158 63 35.0058C63 31.2865 58.3567 27.7614 51.233 25.5743C52.8757 18.2994 52.143 12.5053 48.9277 10.6503C48.1857 10.2199 47.3247 10.0023 46.382 10ZM46.3703 12.5497V12.5637C46.8953 12.5637 47.3177 12.6667 47.6723 12.8608C49.2263 13.7544 49.9007 17.1532 49.3757 21.5251C49.2497 22.6012 49.0443 23.7357 48.7923 24.8936C46.5523 24.3415 44.1117 23.9181 41.5427 23.6444C40.0027 21.5275 38.4043 19.6047 36.7943 17.9205C40.509 14.4585 43.9973 12.5591 46.3727 12.552L46.3703 12.5497ZM23.5737 12.5965C25.935 12.5965 29.4397 14.4865 33.1637 17.9298C31.563 19.614 29.967 21.5251 28.4503 23.6421C25.8673 23.9158 23.4243 24.3392 21.1867 24.9006C20.9253 23.7544 20.7317 22.6456 20.594 21.5789C20.0573 17.2094 20.72 13.8129 22.26 12.9076C22.7033 12.6971 23.1933 12.6082 23.5737 12.5965ZM34.965 19.731C36.0267 20.8257 37.0883 22.0515 38.1383 23.3895C37.1117 23.3427 36.0617 23.3099 35 23.3099C33.9267 23.3099 32.865 23.3333 31.8267 23.3895C32.8533 22.0515 33.915 20.8281 34.965 19.731ZM35 25.8737C36.7267 25.8737 38.4463 25.9532 40.138 26.0912C41.0853 27.4526 42.0093 28.9053 42.8983 30.4421C43.7663 31.9392 44.555 33.4596 45.2737 34.9942C44.555 36.5263 43.7663 38.0585 42.91 39.5556C42.0233 41.0994 41.1063 42.5684 40.1567 43.9298C38.458 44.0772 36.736 44.1591 35 44.1591C33.2733 44.1591 31.5537 44.0772 29.862 43.9415C28.9147 42.5801 27.9907 41.1251 27.1017 39.5906C26.2337 38.0936 25.445 36.5731 24.7263 35.0386C25.4333 33.5018 26.2337 31.9673 27.09 30.4678C27.9767 28.924 28.8937 27.4596 29.8433 26.0982C31.542 25.9485 33.264 25.869 35 25.869V25.8737ZM26.5183 26.4678C25.9583 27.3497 25.3983 28.2526 24.8757 29.1813C24.3507 30.0936 23.8607 31.0105 23.394 31.9275C22.7757 30.393 22.2507 28.8632 21.8167 27.3731C23.31 27.0222 24.885 26.7088 26.5183 26.4678ZM43.4583 26.4678C45.08 26.7088 46.6433 27.0058 48.139 27.3731C47.719 28.8515 47.194 30.3719 46.599 31.8947C46.1323 30.9825 45.6423 30.0632 45.1057 29.1485C44.5807 28.2316 44.0207 27.338 43.4607 26.4678H43.4583ZM50.6053 28.0468C51.7347 28.3977 52.808 28.7883 53.8137 29.2117C57.855 30.9427 60.4683 33.207 60.4683 35.0035C60.4567 36.8 57.8433 39.0737 53.802 40.793C52.822 41.214 51.7487 41.593 50.6403 41.9462C49.987 39.7053 49.133 37.3708 48.0737 34.9754C49.1237 32.5965 49.9637 30.2737 50.6053 28.0421V28.0468ZM19.3503 28.0561C19.999 30.3018 20.8553 32.6339 21.917 35.0269C20.867 37.4058 20.0223 39.7287 19.383 41.9602C18.2537 41.6094 17.1803 41.2164 16.1863 40.7906C12.145 39.0667 9.53167 36.8 9.53167 35.0035C9.53167 33.207 12.145 30.9287 16.1863 29.2117C17.1663 28.7906 18.2397 28.4117 19.3503 28.0561ZM46.599 38.0678C47.2173 39.6047 47.7423 41.1368 48.1763 42.6246C46.683 42.9918 45.1057 43.3029 43.4723 43.5368C44.0323 42.6596 44.5923 41.7544 45.1173 40.8281C45.6423 39.9158 46.13 38.9848 46.599 38.0678ZM23.394 38.1146C23.8607 39.0316 24.3507 39.9462 24.8873 40.8632C25.424 41.7754 25.9723 42.669 26.5323 43.5368C24.9107 43.2982 23.3473 42.9988 21.8517 42.6339C22.2717 41.1602 22.799 39.6351 23.3917 38.1123L23.394 38.1146ZM48.8133 45.1018C49.0747 46.255 49.28 47.3661 49.406 48.4304C49.9427 52.8 49.28 56.1965 47.74 57.1041C47.397 57.3146 46.9513 57.4035 46.4263 57.4035C44.065 57.4035 40.5603 55.5158 36.8363 52.0702C38.437 50.386 40.033 48.4772 41.5497 46.3626C44.1327 46.0865 46.5757 45.6632 48.8133 45.1018ZM21.21 45.1251C23.45 45.6725 25.8907 46.0959 28.4597 46.3696C29.9997 48.4865 31.598 50.4094 33.208 52.0912C29.4863 55.5602 25.9933 57.4597 23.618 57.4597C23.1047 57.448 22.6707 57.3427 22.3277 57.1509C20.7737 56.262 20.0993 52.8608 20.6243 48.4889C20.7503 47.4129 20.958 46.2807 21.21 45.1251ZM31.85 46.6222C32.8767 46.669 33.9267 46.7018 34.9883 46.7018C36.0617 46.7018 37.1233 46.6784 38.1617 46.6222C37.135 47.9602 36.0733 49.1836 35.0233 50.283C33.9617 49.1836 32.9 47.9602 31.85 46.6222Z" fill="#8C8C8C"/>
</svg>
