<svg width="60" height="60" viewBox="0 0 60 60" fill="none" xmlns="http://www.w3.org/2000/svg">
<rect width="60" height="60" rx="14" fill="white"/>
<path fill-rule="evenodd" clip-rule="evenodd" d="M39.7343 17.2092C40.6434 18.1142 40.6434 19.5891 39.7343 20.4941C38.83 21.4039 37.3563 21.4039 36.4472 20.4941L30.4567 14.5037C30.2271 14.2739 29.8826 14.2547 29.6338 14.4511C29.6242 14.4606 29.6134 14.469 29.6027 14.4774C29.5919 14.4858 29.5811 14.4942 29.5716 14.5037L14.5285 29.549C14.2797 29.798 14.2797 30.1859 14.5285 30.4349L29.5764 45.4801C29.8252 45.7291 30.2127 45.7291 30.4615 45.4801L36.4424 39.485C36.8791 39.0502 37.47 38.8061 38.086 38.8061C38.7019 38.8061 39.2929 39.0502 39.7295 39.485C40.6386 40.39 40.6386 41.8649 39.7295 42.7699L31.83 50.6708C31.3443 51.156 30.6861 51.4286 29.9998 51.4286C29.3135 51.4286 28.6553 51.156 28.1697 50.6708L9.33226 31.8331C9.09119 31.5935 8.89987 31.3085 8.76931 30.9946C8.63875 30.6806 8.57153 30.3439 8.57153 30.0039C8.57153 29.6639 8.63875 29.3272 8.76931 29.0133C8.89987 28.6993 9.09119 28.4144 9.33226 28.1747L28.1744 9.33223C29.1792 8.32666 30.8204 8.31708 31.8347 9.30828C33.9879 11.4583 35.5094 12.981 36.3946 13.8669L39.7343 17.2092ZM44.7869 22.3951L50.6674 28.2513C50.9082 28.4909 51.0995 28.7758 51.2301 29.0895C51.3607 29.4032 51.4282 29.7397 51.4287 30.0795C51.4291 30.4194 51.3625 30.756 51.2327 31.0701C51.1029 31.3842 50.9124 31.6695 50.6721 31.9097L44.8444 37.7372C44.4077 38.1721 43.8168 38.4161 43.2008 38.4161C42.5848 38.4161 41.9939 38.1721 41.5573 37.7372C41.3411 37.5219 41.1696 37.2659 41.0526 36.9841C40.9356 36.7022 40.8753 36.4 40.8753 36.0948C40.8753 35.7896 40.9356 35.4874 41.0526 35.2055C41.1696 34.9237 41.3411 34.6677 41.5573 34.4524L45.4712 30.5402C45.72 30.2912 45.72 29.9034 45.4712 29.6544L41.4999 25.6847C41.2837 25.4694 41.1122 25.2135 40.9952 24.9316C40.8782 24.6497 40.8179 24.3475 40.8179 24.0423C40.8179 23.7371 40.8782 23.4349 40.9952 23.153C41.1122 22.8712 41.2837 22.6152 41.4999 22.3999C42.4042 21.4901 43.8779 21.4901 44.7869 22.3951Z" fill="#8C8C8C"/>
<path d="M25.0117 30.0997C25.0117 31.4484 25.5476 32.7419 26.5014 33.6955C27.4553 34.6492 28.749 35.185 30.0979 35.185C31.4468 35.185 32.7405 34.6492 33.6943 33.6955C34.6482 32.7419 35.184 31.4484 35.184 30.0997C35.184 28.751 34.6482 27.4575 33.6943 26.5038C32.7405 25.5501 31.4468 25.0144 30.0979 25.0144C28.749 25.0144 27.4553 25.5501 26.5014 26.5038C25.5476 27.4575 25.0117 28.751 25.0117 30.0997Z" fill="#CF9799"/>
</svg>
