<svg width="70" height="70" viewBox="0 0 70 70" fill="none" xmlns="http://www.w3.org/2000/svg">
<path d="M0 14C0 6.26801 6.26801 0 14 0H56C63.732 0 70 6.26801 70 14V56C70 63.732 63.732 70 56 70H14C6.26801 70 0 63.732 0 56V14Z" fill="white"/>
<path d="M18.4056 58.4971L23.7625 55.2552C24.796 57.0876 25.7361 58.6379 27.9911 58.6379C30.1526 58.6379 31.5154 57.7923 31.5154 54.5034V32.1368H38.0936V54.5964C38.0936 61.4098 34.0999 64.511 28.2731 64.511C23.0107 64.511 19.9561 61.7856 18.4055 58.4966" fill="#CF9799"/>
<path d="M41.6666 57.7922L47.0228 54.691C48.4328 56.9937 50.2654 58.6851 53.5074 58.6851C56.2331 58.6851 57.9712 57.3223 57.9712 55.4428C57.9712 53.1873 56.1857 52.3885 53.1784 51.0732L51.5343 50.3679C46.7882 48.3478 43.6398 45.8105 43.6398 40.4537C43.6398 35.5199 47.3988 31.7607 53.2726 31.7607C57.4546 31.7607 60.4618 33.2175 62.6231 37.0236L57.5013 40.3126C56.3735 38.2922 55.1522 37.4936 53.2727 37.4936C51.3462 37.4936 50.1244 38.7152 50.1244 40.3126C50.1244 42.2861 51.3462 43.0851 54.1652 44.3069L55.8096 45.0117C61.4013 47.4082 64.5496 49.8513 64.5496 55.3488C64.5496 61.2697 59.8979 64.5116 53.6485 64.5116C47.5401 64.5116 43.5928 61.5985 41.6666 57.7922Z" fill="#CF9799"/>
</svg>
