<svg width="70" height="70" viewBox="0 0 70 70" fill="none" xmlns="http://www.w3.org/2000/svg">
<path d="M15 31H66V66H15V31Z" fill="#8C8C8C"/>
<path d="M56 0C63.732 0 70 6.26801 70 14V56C70 63.732 63.732 70 56 70H14C6.26801 70 1.12752e-07 63.732 0 56V14C0 6.26801 6.26801 1.12745e-07 14 0H56ZM56.4092 32.2109C54.6552 31.8956 52.8633 31.8466 51.0947 32.0654C47.2755 32.7878 44.6598 35.2241 43.915 38.7129C43.7153 40.203 43.7568 41.7155 44.0381 43.1924C44.4153 44.4851 45.0712 45.6799 45.959 46.6924C47.3814 48.2268 48.9388 49.1903 52.5508 50.7471C55.6804 52.1131 56.8003 52.7687 57.3604 53.5469C57.7595 54.1359 57.9397 54.8466 57.8691 55.5547C57.7985 56.2628 57.4823 56.9242 56.9746 57.4229C55.4626 58.7835 52.405 58.9454 50.165 57.7695C49.1216 57.1051 48.2195 56.2413 47.5107 55.2275L47.0908 54.6055L45.0801 55.7705L42.4873 57.2041C42.263 57.3245 42.0472 57.4615 41.8428 57.6133C41.768 57.7521 43.0199 59.601 43.6631 60.3115C45.5809 62.2767 48.0768 63.5777 50.7861 64.0244C52.5538 64.2646 54.3448 64.284 56.1172 64.0811C59.9979 63.4259 62.7422 61.4489 63.8623 58.5371C64.8703 55.8603 64.5404 52.242 63.0508 50.002C61.718 47.9804 59.5724 46.5583 54.5605 44.4023C51.8392 43.2264 50.9716 42.6494 50.5068 41.6807C50.2913 41.2785 50.1866 40.826 50.2041 40.3701C50.193 38.5391 51.5593 37.4247 53.6816 37.5703C54.3519 37.5953 55.0053 37.7901 55.5801 38.1357C56.1547 38.4814 56.6325 38.9668 56.9688 39.5469C57.2653 39.9889 57.5341 40.2805 57.6016 40.2363C59.444 39.0939 62.4678 37.0496 62.4678 36.96C62.0009 36.1478 61.437 35.3953 60.7881 34.7197C59.6094 33.4658 58.0856 32.5893 56.4092 32.2002V32.2109ZM27.7197 32.25C21.0095 32.25 15.4609 32.2506 15.4004 32.3008C15.3272 33.264 15.3046 34.2307 15.333 35.1963V37.9961H24.4443V63.8906H30.8896V38.002H39.9785V35.1348L39.9443 32.25H27.7197Z" fill="white"/>
</svg>
