<svg width="70" height="70" viewBox="0 0 70 70" fill="none" xmlns="http://www.w3.org/2000/svg">
<path d="M35 70C54.33 70 70 54.33 70 35C70 15.67 54.33 0 35 0C15.67 0 0 15.67 0 35C0 54.33 15.67 70 35 70Z" fill="#404040"/>
<path d="M48.6172 19H21.7569C18.5778 19 16 21.5778 16 24.7569V43.9439C16 47.1229 18.5778 49.7007 21.7569 49.7007H48.6172C51.7962 49.7007 54.374 47.1229 54.374 43.9439V24.7493C54.374 21.5703 51.7962 19 48.6172 19ZM47.8356 22.8329L36.5473 34.1136C35.8033 34.8652 34.5858 34.8727 33.8342 34.1212L33.8267 34.1136L22.5385 22.8329H47.8356ZM50.5411 43.9439C50.5411 45.0036 49.6844 45.8603 48.6247 45.8603H21.7569C20.6972 45.8603 19.8404 45.0036 19.8404 43.9439V25.5385L31.1211 36.8192C33.3683 39.0663 37.0058 39.0663 39.2604 36.8192L50.5411 25.5385V43.9439Z" fill="#FFD5D7"/>
</svg>
