<svg width="72" height="70" viewBox="0 0 72 70" fill="none" xmlns="http://www.w3.org/2000/svg">
<path d="M35.8861 0C16.0694 0 0 16.0664 0 35.8861C0 51.7415 10.2825 65.1932 24.5411 69.9383C26.3346 70.2705 26.993 69.1598 26.993 68.212C26.993 67.3563 26.9597 64.5294 26.9443 61.5308C16.9607 63.7016 14.8541 57.2967 14.8541 57.2967C13.2217 53.1487 10.8696 52.0458 10.8696 52.0458C7.61364 49.8185 11.115 49.8643 11.115 49.8643C14.7186 50.1174 16.6161 53.5623 16.6161 53.5623C19.8167 59.0485 25.0112 57.4625 27.059 56.5455C27.3811 54.2261 28.3111 52.643 29.3374 51.7469C21.3666 50.8394 12.9875 47.7624 12.9875 34.0118C12.9875 30.0939 14.3894 26.8926 16.685 24.3795C16.3124 23.4756 15.0841 19.8257 17.0326 14.8826C17.0326 14.8826 20.0461 13.9181 26.9039 18.5611C29.7664 17.766 32.8364 17.3672 35.8861 17.3535C38.9358 17.3672 42.0082 17.766 44.8761 18.5611C51.7255 13.9181 54.7348 14.8826 54.7348 14.8826C56.6881 19.8257 55.4592 23.4756 55.0866 24.3795C57.3876 26.8926 58.7799 30.0939 58.7799 34.0118C58.7799 47.7951 50.3848 50.8299 42.3938 51.7183C43.681 52.832 44.8279 55.0159 44.8279 58.3639C44.8279 63.1656 44.7863 67.03 44.7863 68.212C44.7863 69.167 45.4323 70.286 47.2513 69.9336C61.5022 65.1831 71.7716 51.7362 71.7716 35.8861C71.7716 16.0664 55.7046 0 35.8861 0ZM13.4405 51.1205C13.3615 51.2988 13.081 51.3523 12.8255 51.2299C12.5652 51.1128 12.419 50.8697 12.5034 50.6909C12.5806 50.5072 12.8617 50.4561 13.1214 50.5791C13.3823 50.6962 13.5308 50.9416 13.4405 51.1205ZM15.2057 52.6956C15.0346 52.8542 14.7 52.7806 14.473 52.5298C14.2383 52.2796 14.1943 51.945 14.3678 51.784C14.5443 51.6253 14.8688 51.6996 15.1041 51.9498C15.3388 52.2029 15.3846 52.5351 15.2057 52.6956ZM16.4167 54.7108C16.1968 54.8635 15.8373 54.7203 15.615 54.4012C15.3952 54.0821 15.3952 53.6994 15.6198 53.5461C15.8426 53.3927 16.1968 53.5306 16.4221 53.8474C16.6413 54.1718 16.6413 54.5545 16.4167 54.7108ZM18.4648 57.0447C18.2681 57.2617 17.8491 57.2034 17.5425 56.9075C17.2287 56.6181 17.1413 56.2074 17.3386 55.9905C17.5377 55.773 17.959 55.8342 18.2681 56.1278C18.5794 56.4166 18.6745 56.8302 18.4648 57.0447ZM21.1117 57.8327C21.0249 58.1137 20.6214 58.2415 20.2149 58.1221C19.809 57.999 19.5434 57.6698 19.6254 57.3858C19.7098 57.1029 20.1151 56.9698 20.5245 57.0976C20.9298 57.22 21.196 57.5468 21.1117 57.8327ZM24.1239 58.1669C24.134 58.4628 23.7894 58.7082 23.3627 58.7136C22.9336 58.7231 22.5866 58.4836 22.5818 58.1924C22.5818 57.8935 22.9188 57.6505 23.3478 57.6433C23.7745 57.635 24.1239 57.8727 24.1239 58.1669ZM27.0832 58.0534C27.1343 58.3422 26.8377 58.6388 26.414 58.7178C25.9975 58.7939 25.6118 58.6156 25.5589 58.3292C25.5072 58.0332 25.8091 57.7367 26.2251 57.66C26.6494 57.5863 27.0291 57.7599 27.0832 58.0534Z" fill="#404040"/>
</svg>
